<svg xmlns="http://www.w3.org/2000/svg" xmlns:xlink="http://www.w3.org/1999/xlink" viewBox="0,0,256,256" width="50px" height="50px" fill-rule="nonzero"><g fill="#f1f0f0" fill-rule="nonzero" stroke="none" stroke-width="1" stroke-linecap="butt" stroke-linejoin="miter" stroke-miterlimit="10" stroke-dasharray="" stroke-dashoffset="0" font-family="none" font-weight="none" font-size="none" text-anchor="none" style="mix-blend-mode: normal"><g transform="scale(5.12,5.12)"><path d="M30.99609,2c-9.70703,0.03516 -17.67578,4.21484 -21.86328,11.46484c-3.13281,5.42578 -3.94531,11.98828 -2.23438,18.00391c1.65234,5.80469 5.42578,10.53516 10.62891,13.32422c3.98828,2.14063 8.14844,3.20313 12.17578,3.20313c4.625,0 9.07813,-1.40234 12.89063,-4.1875c0.34766,-0.25391 0.49219,-0.70703 0.35938,-1.11719c-0.13672,-0.41016 -0.51172,-0.6875 -0.94531,-0.69141c-6.89062,-0.03906 -15.01562,-6.4375 -16.76562,-9.625l2.3125,-1.54297c0.30469,-0.20312 0.46875,-0.55859 0.4375,-0.92187c-0.03125,-0.36328 -0.26562,-0.68359 -0.60156,-0.83203c-0.06641,-0.02734 -0.88281,-0.39453 -1.81641,-1.28125c0.77734,-0.82422 1.39453,-2.50781 1.42578,-5.78516c0,-0.00391 0,-0.00781 0,-0.00781v-0.00391c0,-0.07422 -0.02734,-0.13672 -0.04297,-0.20703c-0.01172,-0.05859 -0.01172,-0.12109 -0.03516,-0.17187c-0.04687,-0.12109 -0.12109,-0.23437 -0.21094,-0.32422h-0.00391v-0.00391c-0.09375,-0.09375 -0.19922,-0.16406 -0.31641,-0.21484h-0.00391c-0.12109,-0.05078 -0.25391,-0.07812 -0.38672,-0.07812h-3v-0.00391c-0.05469,-8.58984 5.74219,-15.27344 8.55859,-17.16797c0.36719,-0.24219 0.52734,-0.69922 0.39453,-1.12109c-0.12891,-0.42187 -0.51562,-0.70703 -0.95312,-0.70703zM28.14844,4.14063c-3.20312,3.28125 -7.18359,9.42188 -7.14844,16.85938h-9c-0.55078,0 -1,0.44922 -1,1c0,0.55078 0.44922,1 1,1h3.05078c0.26953,4.37109 2.15625,6 3.94922,6c0.625,0 2.20313,-0.23828 3.18359,-2.39453c0.90625,1.65625 2.05469,2.76172 2.95703,3.42969l-1.69922,1.13281c-0.35937,0.24219 -0.52344,0.69141 -0.40625,1.10938c0.06641,0.23047 0.17188,0.47266 0.29688,0.73047c-0.10156,0 -0.17578,0 -0.28125,0.00391c-2.58594,0.03125 -7.39844,0.08594 -8.44922,-0.73828c-0.34766,-0.27344 -0.83594,-0.28516 -1.19531,-0.02734c-0.36328,0.25391 -0.51172,0.71875 -0.37109,1.13672c1.35547,3.95703 4.80078,5.22656 6.21875,5.58594c1.07422,0.27344 2.38281,0.36328 3.70703,0.36328c1.58984,0 3.19922,-0.12891 4.46094,-0.23047c0.66797,-0.05469 1.25,-0.10156 1.53906,-0.10156c0.01563,0 0.02734,0 0.03906,0c0.00391,0 0.01172,-0.00391 0.01563,-0.00391c2.87109,2.10938 6.44141,3.96875 10.01953,4.6875c-6.125,3.26563 -13.61719,3.07422 -20.5625,-0.65234c-4.71875,-2.53125 -8.14453,-6.83203 -9.64844,-12.10937c-1.56641,-5.5 -0.82422,-11.5 2.03906,-16.45703c3.41016,-5.90234 9.61328,-9.57422 17.28516,-10.32422zM17.03125,23h3.92578c-0.17578,2.42969 -0.92578,4 -1.95703,4c-0.86328,0 -1.78125,-1.26172 -1.96875,-4zM23.0625,23h1.90625c-0.10937,1.92188 -0.45312,2.80469 -0.70703,3.20313c-0.46875,-0.72656 -0.89062,-1.60937 -1.18359,-2.68359zM16.05078,34.76953c1.81641,0.26953 4.24609,0.27344 7.02734,0.24219c0.54688,-0.00781 1.0625,-0.01172 1.51172,-0.01172c0.02734,0 0.05078,-0.00391 0.08203,0c0.57422,0.69531 1.26563,1.41797 2.06641,2.14453c-2.07031,0.16406 -5.10547,0.36719 -6.99219,-0.11328c-0.98437,-0.25391 -2.53125,-0.85156 -3.69531,-2.26172z"></path></g></g></svg>